#!OML:ASF I:\Actors\actors\Patient Classification 1\Patient 1\Session 1\Subject1.ASF
:FULLY-SPECIFIED
:DEGREES
1054
root 0.804825 17.498 8.78651 7.68512 -0.733985 -8.52835
lowerback -1.79151 1.39167 7.72553
upperback -5.38042 2.01959 2.31163
thorax -4.42035 0.740473 -1.95391
lowerneck -3.82586 1.75482 4.10603
upperneck 27.947 -0.380686 8.93883
head 9.47799 1.17284 2.37578
rclavicle -8.60986e-015 -4.30866e-014
rhumerus 5.1713 49.1989 -92.7934
rradius 142.891
rwrist -35.6965
rhand 0.423776 -53.7214
rfingers 7.12502
rthumb 25.9962 -81.9632
lclavicle -8.60986e-015 -4.30866e-014
lhumerus -53.7371 -17.3715 111.417
lradius 119.03
lwrist 26.2551
lhand -43.7883 -34.9261
lfingers 7.12502
lthumb -16.6174 -5.61747
rfemur -2.53095 24.1908 26.0001
rtibia 4.39964
rfoot -13.0674 -22.0531
rtoes 1.02838
lfemur 5.9539 -40.3248 -11.6875
ltibia -3.55829
lfoot -18.2503 47.4886
ltoes 3.64031
1055
root 0.805096 17.4976 8.78837 7.63067 -0.724016 -8.47073
lowerback -1.89226 1.42625 7.71175
upperback -5.3424 2.05071 2.25989
thorax -4.31836 0.759675 -1.99749
lowerneck -3.92058 1.96252 4.3593
upperneck 27.9938 -0.194182 9.18791
head 9.51403 1.31646 2.44038
rclavicle -9.1705e-015 2.32081e-014
rhumerus 5.59717 48.6112 -92.2445
rradius 143.09
rwrist -36.85
rhand 0.989857 -53.8355
rfingers 7.12502
rthumb 26.5381 -81.9965
lclavicle -9.1705e-015 2.32081e-014
lhumerus -53.5717 -17.4782 111.316
lradius 119.003
lwrist 26.1859
lhand -43.8703 -35.4329
lfingers 7.12502
lthumb -16.6963 -6.13089
rfemur -2.44192 24.1531 25.9632
rtibia 4.36504
rfoot -13.0526 -22.0499
rtoes 1.01855
lfemur 6.06421 -40.3654 -11.8375
ltibia -3.57448
lfoot -18.3072 47.5155
ltoes 3.75378
1056
root 0.804743 17.4964 8.78921 7.59053 -0.708331 -8.49003
lowerback -1.99594 1.43874 7.73697
upperback -5.31487 2.05467 2.25453
thorax -4.2293 0.764177 -2.01406
lowerneck -3.73162 2.16432 4.99859
upperneck 27.8919 0.0702689 9.03607
head 9.44682 1.48217 2.29577
rclavicle -2.46213e-014 -2.66371e-014
rhumerus 5.91118 48.0621 -91.8348
rradius 143.262
rwrist -38.1102
rhand 1.64612 -53.8943
rfingers 7.12502
rthumb 27.1661 -81.9589
lclavicle -2.46213e-014 -2.66371e-014
lhumerus -53.3805 -17.5341 111.221
lradius 119.013
lwrist 26.1866
lhand -43.9107 -35.5963
lfingers 7.12502
lthumb -16.7352 -6.29764
rfemur -2.40066 24.0824 26.0037
rtibia 4.38295
rfoot -13.0668 -21.9733
rtoes 1.14373
lfemur 6.14566 -40.3647 -11.8624
ltibia -3.60348
lfoot -18.3568 47.4858
ltoes 3.94103
1057
root 0.80353 17.4958 8.78929 7.56793 -0.702851 -8.53995
lowerback -2.08879 1.48308 7.77697
upperback -5.31789 2.10426 2.24612
thorax -4.17418 0.788962 -2.04287
lowerneck -3.91351 2.29807 5.0547
upperneck 28.1628 0.120196 9.399
head 9.58232 1.56531 2.43175
rclavicle -1.81733e-014 3.12092e-014
rhumerus 4.60345 46.9674 -92.9624
rradius 143.373
rwrist -39.3945
rhand 2.99116 -53.6075
rfingers 7.12502
rthumb 28.4521 -81.4642
lclavicle -1.81733e-014 3.12092e-014
lhumerus -53.318 -17.6547 111.18
lradius 119.061
lwrist 26.2464
lhand -43.748 -35.2802
lfingers 7.12502
lthumb -16.5786 -5.96839
rfemur -2.38649 24.0724 26.0769
rtibia 4.41595
rfoot -13.0714 -21.9597
rtoes 1.09205
lfemur 6.17856 -40.3251 -11.8117
ltibia -3.61706
lfoot -18.4099 47.4311
ltoes 4.04232
1058
root 0.803085 17.4955 8.78898 7.54971 -0.712944 -8.54594
lowerback -2.18125 1.56339 7.83992
upperback -5.32708 2.19999 2.16856
thorax -4.11824 0.834172 -2.15634
lowerneck -4.04321 2.38582 5.12439
upperneck 28.3843 0.100474 9.8023
head 9.69321 1.61919 2.57234
rclavicle -1.04517e-014 1.83876e-015
rhumerus 4.33179 46.1324 -93.1187
rradius 143.502
rwrist -40.555
rhand 3.54744 -53.287
rfingers 7.12502
rthumb 28.9835 -81.0535
lclavicle -1.04517e-014 1.83876e-015
lhumerus -53.3255 -17.9125 111.121
lradius 119.122
lwrist 26.2968
lhand -43.6035 -34.9641
lfingers 7.12502
lthumb -16.4394 -5.64069
rfemur -2.36366 24.0911 26.0959
rtibia 4.41997
rfoot -13.0793 -21.9888
rtoes 1.03553
lfemur 6.19071 -40.2601 -11.8113
ltibia -3.60504
lfoot -18.3106 47.395
ltoes 3.87684
1059
root 0.802599 17.4952 8.78755 7.53933 -0.727785 -8.56117
lowerback -2.16288 1.6098 7.89277
upperback -5.40586 2.26758 2.11572
thorax -4.20236 0.859788 -2.2422
lowerneck -4.07341 2.48851 5.09173
upperneck 28.6205 0.0986086 10.2964
head 9.78824 1.67888 2.76437
rclavicle -1.07033e-014 -4.04527e-014
rhumerus 5.34025 45.9902 -91.8334
rradius 143.748
rwrist -41.3525
rhand 3.17691 -52.9319
rfingers 7.12502
rthumb 28.6296 -80.7587
lclavicle -1.07033e-014 -4.04527e-014
lhumerus -53.4286 -18.0679 111.083
lradius 119.199
lwrist 26.3211
lhand -43.636 -34.9618
lfingers 7.12502
lthumb -16.4708 -5.64092
rfemur -2.35635 24.1253 26.1199
rtibia 4.42612
rfoot -13.1178 -21.9903
rtoes 1.10583
lfemur 6.18723 -40.199 -11.7853
ltibia -3.60065
lfoot -18.1653 47.3652
ltoes 3.69277
1060
root 0.802334 17.4947 8.78635 7.5396 -0.73463 -8.57393
lowerback -2.05604 1.63752 7.91781
upperback -5.52528 2.32277 2.07865
thorax -4.38219 0.876249 -2.29953
lowerneck -4.10631 2.59214 5.04218
upperneck 28.8327 0.0931016 10.8192
head 9.87519 1.73753 2.96993
rclavicle -3.12775e-014 -4.47266e-014
rhumerus 4.77957 45.3733 -92.0735
rradius 143.911
rwrist -41.6818
rhand 3.59627 -52.8027
rfingers 7.12502
rthumb 29.0302 -80.5612
lclavicle -3.12775e-014 -4.47266e-014
lhumerus -53.6038 -18.1778 111.093
lradius 119.262
lwrist 26.3305
lhand -43.6695 -35.2407
lfingers 7.12502
lthumb -16.503 -5.92252
rfemur -2.35455 24.1243 26.1337
rtibia 4.41512
rfoot -13.1207 -21.9622
rtoes 1.09962
lfemur 6.19777 -40.2233 -11.7744
ltibia -3.61276
lfoot -18.1068 47.388
ltoes 3.56257
1061
root 0.802718 17.4938 8.78564 7.54 -0.716098 -8.57999
lowerback -2.04072 1.67623 7.95369
upperback -5.56919 2.37756 2.02988
thorax -4.42924 0.898195 -2.37151
lowerneck -4.20791 2.64899 5.33013
upperneck 28.9901 0.0934271 10.8726
head 9.96226 1.78508 2.95005
rclavicle 1.62569e-014 -3.21037e-014
rhumerus 3.02893 44.1345 -93.5235
rradius 144.025
rwrist -41.8727
rhand 4.89306 -52.9178
rfingers 7.12502
rthumb 30.268 -80.4562
lclavicle 1.62569e-014 -3.21037e-014
lhumerus -53.6505 -18.3734 111.106
lradius 119.283
lwrist 26.3289
lhand -43.6315 -35.3843
lfingers 7.12502
lthumb -16.4665 -6.06315
rfemur -2.3299 24.0924 26.1415
rtibia 4.36253
rfoot -13.0657 -21.9657
rtoes 1.09128
lfemur 6.20493 -40.2581 -11.7727
ltibia -3.62454
lfoot -18.0774 47.4076
ltoes 3.49999
1062
root 0.8032 17.4927 8.78343 7.53276 -0.691361 -8.60997
lowerback -2.07268 1.6961 7.99428
upperback -5.56702 2.40024 2.01308
thorax -4.40485 0.908344 -2.41056
lowerneck -4.48253 2.69534 5.43525
upperneck 29.2875 0.0754041 10.9136
head 10.1315 1.81444 2.96503
rclavicle -2.05928e-014 -1.3418e-014
rhumerus 4.19578 43.964 -92.179
rradius 144.31
rwrist -42.5109
rhand 4.54702 -53.1141
rfingers 7.12502
rthumb 29.9378 -80.7126
lclavicle -2.05928e-014 -1.3418e-014
lhumerus -53.6001 -18.5193 111.113
lradius 119.316
lwrist 26.307
lhand -43.5784 -35.3137
lfingers 7.12502
lthumb -16.4153 -5.98825
rfemur -2.31117 24.0976 26.1801
rtibia 4.32945
rfoot -13.0281 -22.007
rtoes 1.2767
lfemur 6.16604 -40.2081 -11.706
ltibia -3.61045
lfoot -18.1313 47.3393
ltoes 3.70219
1063
root 0.802994 17.4917 8.78043 7.48618 -0.699092 -8.71762
lowerback -2.05812 1.70999 8.08533
upperback -5.54516 2.41995 2.02596
thorax -4.3863 0.915794 -2.44783
lowerneck -4.72907 2.76747 5.46869
upperneck 29.5796 0.074653 11.0746
head 10.2925 1.85594 3.03718
rclavicle 2.70844e-015 1.42131e-014
rhumerus 4.34281 43.4653 -91.8302
rradius 144.497
rwrist -43.1056
rhand 4.83352 -53.0922
rfingers 7.12502
rthumb 30.2112 -80.641
lclavicle 2.70844e-015 1.42131e-014
lhumerus -53.5616 -18.6258 111.113
lradius 119.413
lwrist 26.2708
lhand -43.4963 -35.2251
lfingers 7.12502
lthumb -16.3362 -5.89311
rfemur -2.26237 24.1465 26.3294
rtibia 4.34197
rfoot -13.0699 -22.0235
rtoes 1.47646
lfemur 6.19291 -40.1062 -11.5792
ltibia -3.61549
lfoot -18.1405 47.2408
ltoes 3.8774
1064
root 0.802487 17.4909 8.778 7.42794 -0.727293 -8.84279
lowerback -2.05484 1.73341 8.20413
upperback -5.50906 2.45041 2.04161
thorax -4.34452 0.928725 -2.49708
lowerneck -4.90069 2.82053 5.55893
upperneck 29.7936 0.0723192 11.1629
head 10.4114 1.88954 3.06844
rclavicle -1.97418e-014 1.59028e-014
rhumerus 3.9565 42.7966 -91.9382
rradius 144.674
rwrist -43.5238
rhand 5.25437 -52.915
rfingers 7.12502
rthumb 30.6126 -80.3896
lclavicle -1.97418e-014 1.59028e-014
lhumerus -53.5108 -18.7426 111.142
lradius 119.562
lwrist 26.2093
lhand -43.3352 -35.0888
lfingers 7.12502
lthumb -16.1812 -5.74422
rfemur -2.17926 24.2361 26.5162
rtibia 4.34524
rfoot -13.136 -22.0476
rtoes 1.47884
lfemur 6.29033 -40.0432 -11.4769
ltibia -3.65766
lfoot -18.062 47.2105
ltoes 3.81988
1065
root 0.803862 17.4908 8.77535 7.42125 -0.745005 -8.81788
lowerback -2.08658 1.73815 8.19798
upperback -5.51752 2.45292 2.01824
thorax -4.33435 0.929858 -2.51706
lowerneck -4.92801 2.85715 5.64294
upperneck 29.9056 0.0886138 11.1931
head 10.4618 1.91595 3.0732
rclavicle -2.01891e-014 1.93815e-014
rhumerus 3.41092 42.1638 -92.1368
rradius 144.895
rwrist -43.7001
rhand 5.4886 -52.7604
rfingers 7.12502
rthumb 30.8359 -80.193
lclavicle -2.01891e-014 1.93815e-014
lhumerus -53.459 -18.8428 111.188
lradius 119.783
lwrist 26.1572
lhand -43.1014 -34.8452
lfingers 7.12502
lthumb -15.956 -5.48245
rfemur -2.15982 24.2551 26.4879
rtibia 4.31236
rfoot -13.1271 -22.0511
rtoes 1.37885
lfemur 6.29543 -40.0577 -11.5251
ltibia -3.64458
lfoot -18.0151 47.2441
ltoes 3.64318
1066
root 0.805914 17.4914 8.77239 7.44251 -0.750003 -8.73566
lowerback -2.12235 1.73823 8.14148
upperback -5.54045 2.44838 1.9634
thorax -4.33783 0.927999 -2.54195
lowerneck -4.93467 2.86377 5.6926
upperneck 29.9247 0.0716787 11.2494
head 10.4731 1.92094 3.08502
rclavicle -2.77056e-015 4.6118e-014
rhumerus 2.75341 41.4799 -92.4486
rradius 145.117
rwrist -43.7117
rhand 5.77329 -52.4929
rfingers 7.12502
rthumb 31.1073 -79.8738
lclavicle -2.77056e-015 4.6118e-014
lhumerus -53.3736 -19.014 111.21
lradius 120.167
lwrist 26.2092
lhand -42.8282 -34.265
lfingers 7.12502
lthumb -15.6929 -4.88136
rfemur -2.19871 24.1637 26.3597
rtibia 4.29135
rfoot -13.0907 -21.975
rtoes 1.31184
lfemur 6.23862 -40.0908 -11.612
ltibia -3.60382
lfoot -18.013 47.279
ltoes 3.52712
